<svg width="32" height="32" viewBox="0 0 32 32" fill="none" xmlns="http://www.w3.org/2000/svg">
<path d="M25.5999 1.59998V6.39998H30.4V7.99998H25.5999V12.8H24V7.99998H19.2V6.39998H24V1.59998H25.5999ZM14.4 9.59998C12.64 9.59998 11.2 11.04 11.2 12.8C11.2 14.56 12.64 16 14.4 16C16.16 16 17.6 14.56 17.6 12.8C17.6 11.04 16.16 9.59998 14.4 9.59998ZM14.4 7.99998C17.12 7.99998 19.2 10.08 19.2 12.8C19.2 15.52 17.12 17.6 14.4 17.6C11.68 17.6 9.59995 15.52 9.59995 12.8C9.59995 10.08 11.68 7.99998 14.4 7.99998ZM14.4 20.8C9.11995 20.8 4.95995 23.04 4.79995 25.44V25.6V27.2H24V25.6C24 23.2 20 20.96 14.88 20.8H14.4ZM14.4 19.2C20.4799 19.2 25.4399 21.92 25.5999 25.28V25.6V28.8H3.19995V25.6C3.19995 22.08 8.15995 19.2 14.4 19.2Z" fill="#182020"/>
</svg>
