<svg width="32" height="32" viewBox="0 0 32 32" fill="none" xmlns="http://www.w3.org/2000/svg">
<g clip-path="url(#clip0_46_85)">
<path d="M20.96 4.96105C19.04 3.36105 16.64 2.88105 14.24 3.36105C11.2 4.00105 8.63998 6.56105 8.15998 9.76105C7.67998 12.481 8.63998 15.361 10.72 17.121C11.52 17.921 12 18.881 12 20.161V24.001C12 25.281 13.12 26.401 14.4 26.401C14.4 27.361 15.04 28.001 16 28.001C16.96 28.001 17.6 27.361 17.6 26.401C18.88 26.401 20 25.281 20 24.001V20.161C20 19.041 20.48 17.921 21.28 17.121C23.04 15.681 24 13.441 24 11.201C24 8.80105 22.88 6.56105 20.96 4.96105ZM17.6 24.801H14.4C13.92 24.801 13.6 24.481 13.6 24.001V21.601H18.4V24.001C18.4 24.481 18.08 24.801 17.6 24.801ZM20.32 16.001C19.2 16.961 18.56 18.561 18.4 20.001H13.6C13.6 18.401 12.96 16.961 11.68 16.001C10.08 14.401 9.27998 12.161 9.75998 9.92105C10.24 7.36105 12.16 5.44105 14.72 4.80105C15.04 4.80105 15.52 4.80105 16 4.80105C17.44 4.80105 18.88 5.28105 20 6.24105C21.6 7.52105 22.4 9.28105 22.4 11.201C22.4 12.961 21.6 14.721 20.32 16.001Z" fill="#182020"/>
</g>
<defs>
<clipPath id="clip0_46_85">
<rect width="16" height="24.8" fill="white" transform="translate(8 3.19995)"/>
</clipPath>
</defs>
</svg>
