<svg width="32" height="32" viewBox="0 0 32 32" fill="none" xmlns="http://www.w3.org/2000/svg">
<path d="M16 7.44005L11.456 13.424C10.4826 14.703 10.0062 16.2916 10.115 17.8952C10.2239 19.4987 10.9107 21.0084 12.048 22.144C12.5656 22.6655 13.1813 23.0794 13.8596 23.3619C14.5378 23.6443 15.2653 23.7898 16 23.7898C16.7348 23.7898 17.4622 23.6443 18.1405 23.3619C18.8188 23.0794 19.4345 22.6655 19.952 22.144C21.0605 21.0582 21.7525 19.6177 21.9075 18.0738C22.0625 16.5299 21.6705 14.9805 20.8 13.696L20.608 13.424L16 7.44005ZM16 4.80005L21.824 12.448C23.0283 14.0388 23.617 16.0111 23.4818 18.0017C23.3465 19.9922 22.4964 21.8668 21.088 23.28C19.736 24.6245 17.9068 25.3791 16 25.3791C14.0933 25.3791 12.2641 24.6245 10.912 23.28C9.50369 21.8668 8.65356 19.9922 8.51831 18.0017C8.38306 16.0111 8.9718 14.0388 10.176 12.448L16 4.80005Z" fill="#182020"/>
</svg>
