<svg width="32" height="32" viewBox="0 0 32 32" fill="none" xmlns="http://www.w3.org/2000/svg">
<path fill-rule="evenodd" clip-rule="evenodd" d="M9.60005 8.79998C9.60005 9.68363 8.8837 10.4 8.00005 10.4C7.11639 10.4 6.40005 9.68363 6.40005 8.79998C6.40005 7.91632 7.11639 7.19998 8.00005 7.19998C8.8837 7.19998 9.60005 7.91632 9.60005 8.79998ZM11.2 8.79998C11.2 10.5673 9.76736 12 8.00005 12C6.23274 12 4.80005 10.5673 4.80005 8.79998C4.80005 7.03266 6.23274 5.59998 8.00005 5.59998C9.76736 5.59998 11.2 7.03266 11.2 8.79998ZM14.4 7.99997H25.6V9.59997H14.4V7.99997ZM25.6 16H14.4V17.6H25.6V16ZM25.6 24H14.4V25.6H25.6V24ZM9.60005 16.8C9.60005 17.6836 8.8837 18.4 8.00005 18.4C7.11639 18.4 6.40005 17.6836 6.40005 16.8C6.40005 15.9163 7.11639 15.2 8.00005 15.2C8.8837 15.2 9.60005 15.9163 9.60005 16.8ZM11.2 16.8C11.2 18.5673 9.76736 20 8.00005 20C6.23274 20 4.80005 18.5673 4.80005 16.8C4.80005 15.0327 6.23274 13.6 8.00005 13.6C9.76736 13.6 11.2 15.0327 11.2 16.8ZM8.00005 26.4C8.8837 26.4 9.60005 25.6836 9.60005 24.8C9.60005 23.9163 8.8837 23.2 8.00005 23.2C7.11639 23.2 6.40005 23.9163 6.40005 24.8C6.40005 25.6836 7.11639 26.4 8.00005 26.4ZM8.00005 28C9.76736 28 11.2 26.5673 11.2 24.8C11.2 23.0327 9.76736 21.6 8.00005 21.6C6.23274 21.6 4.80005 23.0327 4.80005 24.8C4.80005 26.5673 6.23274 28 8.00005 28Z" fill="#182020"/>
</svg>
