<svg width="32" height="32" viewBox="0 0 32 32" fill="none" xmlns="http://www.w3.org/2000/svg">
<path d="M8 28C7.17957 27.9994 6.37869 27.7495 5.70349 27.2834C5.02829 26.8173 4.51065 26.1571 4.21916 25.3902C3.92767 24.6233 3.87608 23.7859 4.07125 22.989C4.26641 22.1922 4.69911 21.4734 5.312 20.928L14.016 13.216C13.6249 11.9325 13.6036 10.5647 13.9546 9.2696C14.3055 7.97452 15.0145 6.80463 16.0001 5.89418C16.9857 4.98373 18.2081 4.36961 19.5269 4.12229C20.8457 3.87498 22.2075 4.0045 23.456 4.49598L24.608 4.94398L20.192 9.34398L22.656 11.808L27.056 7.40798L27.504 8.54398C27.9955 9.79251 28.125 11.1543 27.8777 12.4731C27.6304 13.7919 27.0163 15.0143 26.1058 15.9999C25.1954 16.9855 24.0255 17.6945 22.7304 18.0454C21.4353 18.3964 20.0675 18.3751 18.784 17.984L11.072 26.64C10.7077 27.0565 10.2606 27.3925 9.75923 27.6266C9.25786 27.8608 8.71322 27.9879 8.16 28H8ZM20.8 5.59998C19.9 5.60479 19.0147 5.82895 18.2209 6.25305C17.4271 6.67714 16.7486 7.28839 16.2443 8.03383C15.74 8.77928 15.425 9.63644 15.3267 10.5311C15.2284 11.4257 15.3496 12.3308 15.68 13.168L15.888 13.696L6.4 22.128C6.14822 22.3478 5.94546 22.618 5.80489 22.9212C5.66431 23.2244 5.58905 23.5538 5.584 23.888C5.58757 24.2271 5.66201 24.5616 5.80254 24.8703C5.94306 25.1789 6.14657 25.4547 6.4 25.68C6.63482 25.9145 6.91459 26.0991 7.22253 26.2229C7.53046 26.3466 7.86021 26.4068 8.192 26.4C8.51136 26.3861 8.82467 26.3081 9.11328 26.1707C9.40189 26.0332 9.65991 25.8391 9.872 25.6L18.304 16.128L18.832 16.336C19.7341 16.6885 20.7127 16.799 21.6707 16.6563C22.6287 16.5136 23.5327 16.1229 24.2929 15.5228C25.0531 14.9227 25.6432 14.1341 26.0044 13.2355C26.3656 12.3368 26.4854 11.3593 26.352 10.4L22.656 14.08L17.856 9.27998L21.552 5.58398C21.3012 5.57407 21.0501 5.57941 20.8 5.59998Z" fill="#141618"/>
</svg>
