<svg width="32" height="32" viewBox="0 0 32 32" fill="none" xmlns="http://www.w3.org/2000/svg">
<g clip-path="url(#clip0_46_85)">
<path d="M20.96 4.9611C19.04 3.3611 16.64 2.8811 14.24 3.3611C11.2 4.0011 8.64 6.5611 8.16 9.7611C7.68 12.4811 8.64 15.3611 10.72 17.1211C11.52 17.9211 12 18.8811 12 20.1611V24.0011C12 25.2811 13.12 26.4011 14.4 26.4011C14.4 27.3611 15.04 28.0011 16 28.0011C16.96 28.0011 17.6 27.3611 17.6 26.4011C18.88 26.4011 20 25.2811 20 24.0011V20.1611C20 19.0411 20.48 17.9211 21.28 17.1211C23.04 15.6811 24 13.4411 24 11.2011C24 8.8011 22.88 6.5611 20.96 4.9611ZM17.6 24.8011H14.4C13.92 24.8011 13.6 24.4811 13.6 24.0011V21.6011H18.4V24.0011C18.4 24.4811 18.08 24.8011 17.6 24.8011ZM20.32 16.0011C19.2 16.9611 18.56 18.5611 18.4 20.0011H13.6C13.6 18.4011 12.96 16.9611 11.68 16.0011C10.08 14.4011 9.28 12.1611 9.76 9.9211C10.24 7.3611 12.16 5.4411 14.72 4.8011C15.04 4.8011 15.52 4.8011 16 4.8011C17.44 4.8011 18.88 5.2811 20 6.2411C21.6 7.5211 22.4 9.2811 22.4 11.2011C22.4 12.9611 21.6 14.7211 20.32 16.0011Z" fill="#141618"/>
</g>
<defs>
<clipPath id="clip0_46_85">
<rect width="16" height="24.8" fill="white" transform="translate(8 3.2)"/>
</clipPath>
</defs>
</svg>
