<svg width="32" height="32" viewBox="0 0 32 32" fill="none" xmlns="http://www.w3.org/2000/svg">
<path d="M16 7.44L11.456 13.424C10.4826 14.703 10.0062 16.2916 10.115 17.8951C10.2239 19.4987 10.9107 21.0083 12.048 22.144C12.5656 22.6655 13.1813 23.0794 13.8595 23.3618C14.5378 23.6443 15.2653 23.7897 16 23.7897C16.7347 23.7897 17.4622 23.6443 18.1405 23.3618C18.8188 23.0794 19.4344 22.6655 19.952 22.144C21.0604 21.0582 21.7525 19.6176 21.9075 18.0737C22.0625 16.5298 21.6705 14.9805 20.8 13.696L20.608 13.424L16 7.44ZM16 4.8L21.824 12.448C23.0283 14.0387 23.617 16.0111 23.4817 18.0016C23.3465 19.9922 22.4964 21.8668 21.088 23.28C19.7359 24.6244 17.9067 25.3791 16 25.3791C14.0933 25.3791 12.2641 24.6244 10.912 23.28C9.50366 21.8668 8.65353 19.9922 8.51828 18.0016C8.38302 16.0111 8.97177 14.0387 10.176 12.448L16 4.8Z" fill="#141618"/>
</svg>
