<svg width="32" height="32" viewBox="0 0 32 32" fill="none" xmlns="http://www.w3.org/2000/svg">
<path d="M17.6 4.8H14.4C14.08 4.8 13.76 5.12 13.6 5.44V5.6V6.4H18.4V5.6C18.4 5.28 18.08 4.96 17.6 4.8ZM14.4 11.2V22.4H12.8V11.2H14.4ZM19.2 11.2V22.4H17.6V11.2H19.2ZM22.4 8H9.59999V23.2C9.59999 24.48 10.56 25.44 11.84 25.6H12H20C21.28 25.6 22.24 24.64 22.4 23.36V23.2V8ZM17.6 3.2C18.88 3.2 19.84 4.16 20 5.44V5.6V6.4H25.6V8H24V23.2C24 25.28 22.4 27.04 20.32 27.2H20H12C9.91999 27.2 8.15999 25.6 7.99999 23.52V23.2V8H6.39999V6.4H12V5.6C12 4.32 12.96 3.36 14.24 3.2H14.4H17.6Z" fill="#141618"/>
</svg>
