<svg width="32" height="32" viewBox="0 0 32 32" fill="none" xmlns="http://www.w3.org/2000/svg">
<path d="M16 8C14.24 8 12.8 9.44 12.8 11.2C12.8 12.96 14.24 14.4 16 14.4C17.76 14.4 19.2 12.96 19.2 11.2C19.2 9.44 17.76 8 16 8ZM16 6.4C18.72 6.4 20.8 8.48 20.8 11.2C20.8 13.92 18.72 16 16 16C13.28 16 11.2 13.92 11.2 11.2C11.2 8.48 13.28 6.4 16 6.4ZM16 19.2C10.72 19.2 6.56 21.44 6.4 23.84V24V25.6H25.6V24C25.6 21.6 21.6 19.36 16.48 19.2H16ZM16 17.6C22.08 17.6 27.04 20.32 27.2 23.68V24V27.2H4.8V24C4.8 20.48 9.76 17.6 16 17.6Z" fill="#141618"/>
</svg>
